Coordinates
version=1
nRows=16
nColumns=40
inDegrees=yes

Units are S.I. units (second, meters, Newtons, ...)
Angles are in degrees.

endheader
time	pelvis_tilt	pelvis_list	pelvis_rotation	pelvis_tx	pelvis_ty	pelvis_tz	hip_flexion_r	hip_adduction_r	hip_rotation_r	knee_angle_r	knee_angle_r_beta	ankle_angle_r	subtalar_angle_r	mtp_angle_r	hip_flexion_l	hip_adduction_l	hip_rotation_l	knee_angle_l	knee_angle_l_beta	ankle_angle_l	subtalar_angle_l	mtp_angle_l	lumbar_extension	lumbar_bending	lumbar_rotation	arm_flex_r	arm_add_r	arm_rot_r	elbow_flex_r	pro_sup_r	wrist_flex_r	wrist_dev_r	arm_flex_l	arm_add_l	arm_rot_l	elbow_flex_l	pro_sup_l	wrist_flex_l	wrist_dev_l
     50.38928571	     -3.37526172	     -4.14431162	    -12.29174038	      0.96806651	      0.92635419	      0.42164343	     24.94698668	      0.42732239	     -6.35984113	     17.95141423	     17.95141423	      8.53995682	     10.00643728	      3.84751152	      5.23921340	     -3.69137374	    -10.90668977	     20.94134072	     20.94134072	     19.48043586	    -15.10579829	      2.24454238	    -10.19410696	      6.50695148	      1.73131209	    -18.12738537	    -13.17858287	    -10.92713847	     28.71935153	     46.46801415	      0.00000000	      0.00000000	     39.27336829	    -23.72990397	     -1.71832021	     58.09628688	     46.96695747	      0.00000000	      0.00000000
     50.40857143	     -3.34753970	     -3.98027336	    -12.61376370	      0.96906449	      0.92589137	      0.42522936	     24.62420144	      0.60722832	     -6.49945558	     17.21947410	     17.21947410	      8.09673291	     10.92922567	      3.79504239	      4.21264224	     -3.57460169	    -11.40266425	     20.08691206	     20.08691206	     19.67153590	    -14.65128701	      2.04992995	    -10.06506722	      6.43313776	      1.84627254	    -18.83423400	    -13.05403953	    -10.88568958	     28.72522638	     46.45441691	      0.00000000	      0.00000000	     40.44745042	    -24.03438463	     -2.11816605	     58.95213769	     47.02548907	      0.00000000	      0.00000000
     50.42785714	     -3.30246320	     -3.82016207	    -12.87942622	      0.97031708	      0.92518019	      0.42891055	     24.39888678	      0.70525250	     -6.60206934	     17.15996772	     17.15996772	      7.64428377	     11.43980533	      3.05282476	      3.21054919	     -3.47477791	    -11.89897420	     19.33091576	     19.33091576	     19.86677587	    -14.14261588	      1.69323072	     -9.93049443	      6.36732504	      2.00666315	    -19.40474170	    -12.88843797	    -10.86373482	     28.90310758	     46.43549722	      0.00000000	      0.00000000	     41.46179236	    -24.17719940	     -2.68561026	     59.96944348	     47.09780127	      0.00000000	      0.00000000
     50.44714286	     -3.29407873	     -3.73054131	    -13.06030144	      0.97189800	      0.92416638	      0.43276109	     24.05423725	      0.90032916	     -6.49916828	     17.07347819	     17.07347819	      5.89230244	     11.12329467	     -1.75471033	      2.29599249	     -3.49492843	    -12.36827879	     18.70776858	     18.70776858	     19.77348138	    -13.72964286	      0.36822529	     -9.76237275	      6.42779696	      1.87325829	    -19.92439423	    -12.82702315	    -10.81586660	     29.95653394	     46.36262039	      0.00000000	      0.00000000	     41.76999274	    -24.19269103	     -4.63671842	     61.75468217	     47.29597594	      0.00000000	      0.00000000
     50.46642857	     -3.22808255	     -3.63100286	    -13.20397594	      0.97366041	      0.92333655	      0.43669992	     23.91502368	      0.99349454	     -6.33362129	     17.85738258	     17.85738258	      5.78833517	     10.67311908	     -2.34186495	      1.30983580	     -3.43740646	    -12.61615897	     18.08572740	     18.08572740	     20.03347706	    -13.44306496	      0.36825647	     -9.60868977	      6.46382398	      1.99853631	    -19.96483496	    -12.68742155	    -10.73121761	     29.83030986	     46.35938925	      0.00000000	      0.00000000	     42.56544511	    -24.31119506	     -4.85187875	     62.30905941	     47.32887822	      0.00000000	      0.00000000
     50.48571429	     -3.17428608	     -3.58247382	    -13.28807459	      0.97557362	      0.92252145	      0.44074622	     23.79446659	      1.13528241	     -6.06907411	     18.81132005	     18.81132005	      5.68118251	      9.92015309	     -3.09351291	      0.33578096	     -3.45546681	    -12.83486359	     17.48775201	     17.48775201	     20.29023550	    -13.07770688	      0.36218012	     -9.47466105	      6.57737177	      2.15378546	    -19.90403615	    -12.57020010	    -10.66994279	     29.72475046	     46.35818311	      0.00000000	      0.00000000	     43.17427416	    -24.32760706	     -5.17872051	     62.95208152	     47.36932697	      0.00000000	      0.00000000
     50.50500000	     -3.15555600	     -3.51980101	    -13.36347901	      0.97760182	      0.92175940	      0.44498728	     23.67369690	      1.32326257	     -5.58588959	     19.75682898	     19.75682898	      5.64400765	      8.82334792	     -4.00778172	     -0.59763306	     -3.48140461	    -13.09615219	     16.90368654	     16.90368654	     20.50843444	    -12.68015827	      0.40969343	     -9.30120704	      6.66828021	      2.33738814	    -19.68919584	    -12.45279381	    -10.61865388	     29.61917743	     46.35882590	      0.00000000	      0.00000000	     43.57575389	    -24.30304032	     -5.66364948	     63.70289176	     47.42123481	      0.00000000	      0.00000000
     50.52428571	     -3.15168257	     -3.58349596	    -13.35550495	      0.97965650	      0.92120295	      0.44938252	     23.34319333	      1.77266613	     -4.65304842	     20.28439734	     20.28439734	      4.90923737	      6.75369759	     -6.48253027	     -1.42557366	     -3.72264550	    -13.40038506	     16.55898038	     16.55898038	     20.85420284	    -12.06267221	      0.69535219	     -9.21342310	      6.92803892	      2.06861531	    -18.92750413	    -12.44638960	    -10.55222687	     29.07467022	     46.37578301	      0.00000000	      0.00000000	     43.20358667	    -24.35485530	     -7.49395444	     65.58135634	     47.58474115	      0.00000000	      0.00000000
     50.54357143	     -3.12757186	     -3.58898198	    -13.23048384	      0.98168525	      0.92079220	      0.45356804	     23.18392321	      1.93887196	     -4.47969460	     21.23746257	     21.23746257	      5.23591484	      6.12422839	     -6.83516411	     -2.21793722	     -3.86122040	    -13.40980788	     16.20476425	     16.20476425	     20.95176699	    -11.82524668	      0.86370252	     -9.08166844	      7.10873823	      2.07231898	    -18.57667661	    -12.44659119	    -10.52606359	     29.08512740	     46.37536853	      0.00000000	      0.00000000	     43.47006259	    -24.39714718	     -7.64338639	     65.87605648	     47.60246243	      0.00000000	      0.00000000
     50.56285714	     -3.23367656	     -3.65701348	    -13.05368712	      0.98356735	      0.92053276	      0.45777513	     22.94983548	      2.20122644	     -4.40007137	     21.77626878	     21.77626878	      5.58183420	      5.71743510	     -7.01618656	     -2.74234267	     -4.14627611	    -13.34671277	     16.08172157	     16.08172157	     20.95124186	    -11.71256186	      0.99132850	     -8.83681170	      7.39001548	      2.08666801	    -18.18110389	    -12.42913713	    -10.51022340	     29.18086355	     46.37313475	      0.00000000	      0.00000000	     43.67461108	    -24.33515129	     -7.69447361	     66.08304840	     47.61099012	      0.00000000	      0.00000000
     50.58214286	     -3.16484059	     -3.61226542	    -12.86401152	      0.98530502	      0.92064902	      0.46214220	     22.72234165	      2.51104671	     -3.47424771	     22.57257175	     22.57257175	      6.07795956	      3.85297905	     -6.80246666	     -3.39818949	     -4.32269453	    -13.45264501	     16.00053627	     16.00053627	     21.09983000	    -11.22789748	      1.59175810	     -8.86355599	      7.41850815	      2.02311360	    -17.62798892	    -12.47191904	    -10.49542279	     29.10409773	     46.37735503	      0.00000000	      0.00000000	     43.58149481	    -24.39281348	     -8.22852049	     66.91054187	     47.66212444	      0.00000000	      0.00000000
     50.60142857	     -3.19791413	     -3.67086982	    -12.53727667	      0.98693715	      0.92095333	      0.46621333	     22.31766793	      2.71277740	     -3.53493835	     22.86075715	     22.86075715	      6.54090984	      3.63230208	     -6.92059113	     -3.73602517	     -4.67652520	    -13.28504077	     16.26511861	     16.26511861	     20.95710095	    -11.16815365	      1.71634872	     -8.75081964	      7.63771678	      1.98621624	    -17.23397225	    -12.54836487	    -10.49524927	     29.21301879	     46.37588192	      0.00000000	      0.00000000	     43.62708907	    -24.26056511	     -8.23804539	     67.04548424	     47.66525062	      0.00000000	      0.00000000
     50.62071429	     -3.22679699	     -3.82465008	    -12.17907615	      0.98823636	      0.92142960	      0.47041742	     21.91011384	      3.13278273	     -3.20617646	     23.15581565	     23.15581565	      7.27286343	      2.68700871	     -5.92098425	     -3.66056324	     -5.33487237	    -13.40149138	     17.39088403	     17.39088403	     21.40832126	    -10.60226858	      2.68319809	     -8.77895813	      7.88790605	      1.54184660	    -16.51391442	    -12.72635508	    -10.42147091	     29.14633946	     46.37214363	      0.00000000	      0.00000000	     43.13984648	    -24.58781960	     -9.06700835	     68.23760901	     47.74112803	      0.00000000	      0.00000000
     50.64000000	     -3.19730285	     -3.86134840	    -11.72377310	      0.98950917	      0.92222798	      0.47427288	     21.32090752	      3.25852642	     -3.45126827	     23.15230211	     23.15230211	      7.75818179	      2.61562024	     -5.94749145	     -3.61504128	     -5.77872681	    -13.03958045	     18.36323763	     18.36323763	     21.13939046	    -10.74729860	      2.68711290	     -8.80341790	      7.99952913	      1.52583234	    -16.06055856	    -12.84395241	    -10.39261868	     29.27901892	     46.36745270	      0.00000000	      0.00000000	     43.01464592	    -24.30173511	     -8.99101775	     68.29973070	     47.73586450	      0.00000000	      0.00000000
     50.65928571	     -3.24770572	     -3.95340588	    -11.23492245	      0.99054105	      0.92301316	      0.47813128	     20.72480339	      3.47264519	     -3.72779640	     22.96058499	     22.96058499	      8.20247482	      2.53575314	     -5.86204048	     -3.11460753	     -6.41965247	    -12.65144270	     20.00322901	     20.00322901	     20.80637082	    -11.02697605	      2.47372132	     -8.74210672	      8.15818592	      1.48612727	    -15.69932498	    -12.98362628	    -10.34850829	     29.41246017	     46.36027553	      0.00000000	      0.00000000	     42.84922441	    -24.04586161	     -8.93319195	     68.40899074	     47.73266278	      0.00000000	      0.00000000
     50.67857143	     -3.30431221	     -3.99666184	    -10.70471704	      0.99144500	      0.92387094	      0.48189145	     20.11405770	      3.63627263	     -4.00190953	     22.69256433	     22.69256433	      8.63707615	      2.43361837	     -5.71321451	     -2.35623654	     -7.08942322	    -12.27414728	     22.03484152	     22.03484152	     20.28823942	    -11.24236060	      1.91945249	     -8.64386714	      8.26457695	      1.44581382	    -15.36234985	    -13.13848908	    -10.25971999	     29.58135492	     46.34722247	      0.00000000	      0.00000000	     42.43489939	    -23.68987107	     -8.86437939	     68.51917234	     47.72725538	      0.00000000	      0.00000000
